<svg xmlns="http://www.w3.org/2000/svg" width="1440" height="900" viewBox="0 0 1440 900" role="img" aria-labelledby="title desc">
  <title id="title">Steady Hand family care guide</title>
  <desc id="desc">A Bauhaus-inspired hero for a free family-care planning guide. Two adult family members review a care checklist at a kitchen table beside the headline, Care for someone else. Get support for your next step, and a Get the free care guide button.</desc>
  <rect width="1440" height="900" fill="#f7f6f0"/>
  <rect x="0" y="0" width="18" height="900" fill="#c83d2d"/>
  <circle cx="104" cy="88" r="24" fill="#c83d2d"/>
  <rect x="94" y="78" width="20" height="20" fill="#f7f6f0"/>
  <text x="145" y="98" fill="#202a2a" font-family="Arial, Helvetica, sans-serif" font-size="25" font-weight="700" letter-spacing="2">STEADY HAND</text>
  <text x="110" y="232" fill="#c83d2d" font-family="Arial, Helvetica, sans-serif" font-size="18" font-weight="700" letter-spacing="2">FREE FAMILY-CARE PLANNING GUIDE</text>
  <text x="110" y="330" fill="#202a2a" font-family="Arial, Helvetica, sans-serif" font-size="62" font-weight="700">Care for someone</text>
  <text x="110" y="405" fill="#202a2a" font-family="Arial, Helvetica, sans-serif" font-size="62" font-weight="700">else. Get support</text>
  <text x="110" y="480" fill="#202a2a" font-family="Arial, Helvetica, sans-serif" font-size="62" font-weight="700">for your next step.</text>
  <text x="112" y="555" fill="#465452" font-family="Arial, Helvetica, sans-serif" font-size="24">A clear starting point for the people</text>
  <text x="112" y="590" fill="#465452" font-family="Arial, Helvetica, sans-serif" font-size="24">who count on you.</text>
  <rect x="110" y="654" width="338" height="72" rx="2" fill="#c83d2d"/>
  <text x="139" y="700" fill="#ffffff" font-family="Arial, Helvetica, sans-serif" font-size="22" font-weight="700">Get the free care guide</text>
  <path d="M409 690h17m-7-7 7 7-7 7" fill="none" stroke="#ffffff" stroke-width="3" stroke-linecap="square" stroke-linejoin="miter"/>
  <text x="111" y="785" fill="#465452" font-family="Arial, Helvetica, sans-serif" font-size="16">A practical guide. A manageable next step.</text>
  <rect x="733" y="124" width="601" height="638" fill="#e5e9e3"/>
  <rect x="733" y="124" width="13" height="638" fill="#d7b94b"/>
  <circle cx="1257" cy="204" r="36" fill="#c83d2d"/>
  <rect x="790" y="166" width="17" height="17" fill="#416b79"/>
  <path d="M1288 274h34m-17-17v34" stroke="#416b79" stroke-width="6"/>
  <rect x="785" y="255" width="493" height="306" fill="#f7f6f0"/>
  <rect x="785" y="255" width="493" height="12" fill="#202a2a"/>
  <rect x="833" y="302" width="185" height="152" fill="#d8e0dc"/>
  <rect x="1038" y="302" width="191" height="14" fill="#202a2a"/>
  <rect x="1038" y="334" width="154" height="9" fill="#87938c"/>
  <rect x="1038" y="357" width="177" height="9" fill="#87938c"/>
  <rect x="1038" y="380" width="129" height="9" fill="#87938c"/>
  <rect x="1038" y="412" width="170" height="30" fill="#c83d2d"/>
  <circle cx="887" cy="364" r="42" fill="#d9a17f"/>
  <path d="M845 359c4-44 74-61 87-7-16-14-31-19-52-17-10 1-22 9-35 24z" fill="#303638"/>
  <path d="M827 453c14-43 93-52 122 1v107H827z" fill="#416b79"/>
  <circle cx="964" cy="511" r="11" fill="#d9a17f"/>
  <circle cx="1153" cy="364" r="42" fill="#b97959"/>
  <path d="M1111 357c3-44 66-58 85-12l-1 30c-14-17-25-29-46-29-13 0-26 4-38 11z" fill="#4a3933"/>
  <path d="M1092 453c16-43 93-52 122 1v107h-122z" fill="#c83d2d"/>
  <path d="M1092 490c-34 1-54 22-67 53" fill="none" stroke="#b97959" stroke-width="18" stroke-linecap="round"/>
  <circle cx="1027" cy="543" r="10" fill="#b97959"/>
  <path d="M762 558h543l-57 102H820z" fill="#d2b68b"/>
  <path d="M822 660h425l-20 92H845z" fill="#416b79"/>
  <rect x="994" y="542" width="137" height="76" fill="#fffdf6" stroke="#202a2a" stroke-width="3"/>
  <text x="1007" y="563" fill="#202a2a" font-family="Arial, Helvetica, sans-serif" font-size="11" font-weight="700" letter-spacing="1">CARE PLAN</text>
  <rect x="1008" y="574" width="10" height="10" fill="none" stroke="#416b79" stroke-width="2"/>
  <path d="m1010 578 3 3 6-7" fill="none" stroke="#416b79" stroke-width="2"/>
  <rect x="1025" y="577" width="87" height="4" fill="#87938c"/>
  <rect x="1008" y="590" width="10" height="10" fill="none" stroke="#416b79" stroke-width="2"/>
  <rect x="1025" y="593" width="73" height="4" fill="#87938c"/>
  <rect x="1008" y="606" width="10" height="4" fill="#c83d2d"/>
  <rect x="1025" y="606" width="92" height="4" fill="#87938c"/>
  <rect x="776" y="696" width="26" height="26" fill="#d7b94b"/>
  <circle cx="1297" cy="709" r="14" fill="#c83d2d"/>
  <path d="M777 795h548" stroke="#202a2a" stroke-width="2"/>
  <text x="778" y="828" fill="#465452" font-family="Arial, Helvetica, sans-serif" font-size="15" letter-spacing="1">A PRACTICAL NEXT STEP, TAKEN TOGETHER</text>
</svg>
